<?xml version="1.0" standalone="no"?>
<!DOCTYPE svg PUBLIC "-//W3C//DTD SVG 20010904//EN"
 "http://www.w3.org/TR/2001/REC-SVG-20010904/DTD/svg10.dtd">
<svg version="1.0" xmlns="http://www.w3.org/2000/svg"
 width="380.000000pt" height="496.000000pt" viewBox="0 0 380.000000 496.000000"
 preserveAspectRatio="xMidYMid meet">

<g transform="translate(0.000000,496.000000) scale(0.100000,-0.100000)"
fill="#000000" stroke="none">
<path d="M1465 4950 c-24 -9 -133 -107 -290 -261 l-110 -108 -53 54 c-73 74
-146 109 -231 109 -89 1 -150 -24 -200 -80 -50 -57 -71 -119 -70 -203 l0 -66
22 66 c38 112 92 174 179 205 91 32 177 7 259 -75 60 -60 99 -142 99 -206 0
-34 -1 -35 -42 -37 -24 -1 -77 0 -119 1 -59 2 -87 -1 -122 -17 -56 -25 -121
-89 -138 -136 -7 -20 -16 -36 -20 -36 -17 0 -78 82 -94 126 -30 85 -36 93 -29
39 8 -70 41 -140 81 -176 l35 -30 -16 -40 c-22 -53 -20 -77 8 -132 15 -32 23
-64 23 -100 0 -30 7 -67 17 -85 l17 -33 -50 -55 c-103 -113 -128 -209 -124
-494 0 -25 0 -88 -1 -140 -1 -81 2 -102 22 -140 42 -81 96 -154 132 -177 71
-45 72 -50 33 -87 -89 -81 -30 -226 92 -226 52 0 97 28 119 74 9 20 20 36 24
36 4 0 26 -17 50 -38 36 -32 43 -43 43 -77 2 -65 18 -113 52 -152 37 -43 129
-88 208 -104 l56 -11 -28 -52 c-68 -123 -102 -288 -102 -501 -1 -207 30 -335
102 -425 l28 -35 -13 -75 c-19 -110 -27 -213 -20 -252 4 -23 16 -38 37 -51 34
-19 34 -13 13 -157 -6 -42 -3 -49 40 -107 50 -68 158 -162 221 -193 89 -43
327 -12 390 50 27 27 30 37 30 93 l0 62 62 -47 c89 -67 121 -74 250 -60 57 6
124 20 148 31 105 46 109 145 13 334 -34 69 -38 81 -24 89 28 16 46 39 46 60
0 12 17 35 37 53 33 28 37 37 36 76 0 24 -2 101 -4 172 -2 70 -3 127 -3 127 1
0 15 -7 30 -15 84 -44 179 10 214 120 18 54 15 212 -5 310 -29 141 -108 324
-192 444 l-44 64 30 31 c31 32 70 109 71 138 0 9 15 26 34 37 40 25 175 165
201 208 16 28 20 30 68 25 87 -8 148 44 149 127 0 45 -15 78 -49 107 -25 21
-25 22 -7 50 24 35 24 127 2 170 -12 21 -14 34 -7 41 6 6 12 55 14 109 2 67 9
112 21 139 25 55 25 191 0 265 -24 73 -67 147 -110 191 l-35 36 19 38 c29 56
34 113 16 165 -9 25 -16 56 -16 69 0 67 -56 132 -193 224 -56 37 -138 38 -190
3 -31 -21 -41 -23 -72 -15 -58 16 -115 -12 -115 -58 0 -17 -6 -23 -21 -23 -12
0 -36 -15 -53 -33 l-31 -34 -86 21 c-71 16 -88 24 -101 46 -10 18 -12 33 -5
53 13 41 1 73 -46 122 -23 24 -59 63 -81 86 -53 58 -133 92 -223 97 l-72 4
-37 67 c-20 36 -54 88 -76 115 -55 70 -87 89 -123 76z m120 -221 l36 -69 -20
-26 c-12 -15 -21 -35 -21 -45 0 -11 -4 -19 -10 -19 -5 0 -28 -16 -49 -36 -43
-38 -66 -90 -58 -130 2 -14 -4 -42 -15 -62 -11 -21 -17 -48 -14 -63 5 -24 1
-27 -68 -51 l-74 -25 -33 21 c-19 12 -58 44 -86 73 -49 48 -53 55 -53 100 -1
26 -7 66 -16 88 l-14 40 52 45 c28 25 117 103 197 174 l145 129 32 -37 c18
-21 49 -68 69 -107z m310 -103 c30 -14 55 -26 55 -28 0 -2 -43 -1 -95 0 -65 3
-95 0 -95 -7 0 -22 62 -49 138 -61 80 -12 153 -39 184 -67 22 -20 9 -47 -34
-69 -53 -28 -130 -15 -243 39 -119 58 -165 101 -165 156 0 33 4 40 28 49 72
28 149 24 227 -12z m895 -226 c19 -10 44 -28 55 -41 l20 -22 -20 7 c-31 12
-138 36 -159 36 -12 0 -16 -5 -13 -14 4 -11 1 -13 -11 -10 -14 5 -14 3 2 -10
10 -8 55 -29 100 -46 122 -47 158 -71 189 -128 29 -53 33 -93 16 -157 -18 -71
-19 -72 -34 -45 -8 14 -14 19 -15 11 0 -23 -47 -4 -106 44 -30 25 -59 45 -64
45 -5 0 -29 17 -53 38 -24 21 -85 64 -135 96 -122 76 -123 110 -5 86 104 -21
214 -90 252 -158 5 -9 12 -14 15 -11 9 8 -41 99 -72 132 -15 16 -60 47 -100
69 -73 40 -73 41 -54 60 26 27 91 47 127 41 17 -3 46 -14 65 -23z m-1020 -36
l55 -18 -85 -7 c-47 -4 -105 -12 -128 -18 -62 -17 -79 0 -46 48 16 22 22 23
83 18 36 -3 91 -14 121 -23z m-650 -69 c41 -21 70 -63 70 -101 0 -29 -5 -36
-42 -55 -24 -12 -78 -46 -120 -75 -43 -30 -88 -54 -101 -54 -13 0 -45 11 -73
24 -27 13 -68 29 -92 35 -72 20 -81 77 -22 145 45 51 116 78 197 74 38 -2 68
-8 70 -14 5 -14 -48 -34 -86 -34 -26 0 -51 -16 -51 -32 0 -13 89 -9 125 6 43
18 86 63 78 82 -7 18 11 18 47 -1z m867 -43 c28 -11 97 -49 152 -85 104 -68
130 -100 144 -174 8 -43 -3 -42 -44 5 -162 186 -369 266 -561 216 -33 -8 -62
-13 -65 -10 -8 8 78 48 132 63 65 17 177 10 242 -15z m-721 -60 c-4 -3 -14 2
-24 12 -16 18 -16 18 6 6 13 -6 21 -14 18 -18z m1199 -112 c156 -62 236 -117
308 -211 49 -65 56 -80 63 -142 9 -73 -8 -82 -40 -20 -65 130 -204 276 -331
350 -50 29 -87 53 -83 53 4 0 42 -14 83 -30z m-1648 -106 l64 -36 -28 -32
c-15 -17 -31 -35 -34 -39 -12 -16 -99 15 -124 45 -24 28 -33 76 -18 91 17 18
79 5 140 -29z m393 -349 c108 -56 58 -345 -61 -345 -39 0 -42 11 -6 29 69 35
102 175 57 248 -20 33 -57 50 -87 39 -11 -4 -7 4 10 19 32 29 47 31 87 10z
m-45 -70 c21 -20 25 -34 25 -83 0 -141 -115 -183 -136 -50 -4 21 -10 35 -15
32 -5 -3 -9 0 -9 5 0 6 4 11 8 11 4 0 14 16 21 35 11 32 53 75 73 75 5 0 20
-11 33 -25z m1692 -102 c15 -26 37 -80 49 -122 12 -41 24 -68 26 -60 9 22 30
-40 30 -86 0 -22 -8 -62 -17 -90 -41 -122 -107 -182 -228 -209 -27 -6 -27 -5
-16 16 7 13 27 46 45 73 19 28 36 64 39 80 6 27 3 32 -37 53 -24 12 -46 22
-50 22 -4 0 -31 11 -60 24 -56 26 -209 76 -232 76 -34 0 -35 -88 -2 -167 13
-32 27 -66 30 -77 6 -18 7 -18 26 -1 10 9 22 31 26 48 11 52 27 4 19 -59 -5
-40 -3 -54 6 -54 7 0 10 -3 6 -6 -3 -3 -70 -5 -149 -5 -199 2 -282 -16 -480
-105 -130 -58 -203 -77 -308 -77 -152 -1 -281 56 -341 151 -33 52 -33 53 6
160 17 48 28 101 30 155 4 73 18 154 27 161 1 2 29 10 60 19 51 13 67 14 135
2 43 -7 134 -19 203 -26 l125 -13 -160 -23 c-171 -25 -259 -30 -315 -19 l-35
7 28 -25 c15 -15 37 -26 48 -26 15 0 19 -7 19 -39 0 -24 6 -44 17 -52 15 -13
15 -10 9 32 l-7 46 118 7 c65 3 155 9 201 13 l82 6 0 -47 c0 -87 -53 -170
-117 -182 -39 -7 -43 -21 -9 -30 73 -18 151 88 160 217 3 53 8 66 25 75 12 6
27 18 34 27 8 10 40 17 107 22 86 6 228 27 289 42 21 5 22 3 17 -18 -6 -22 -5
-21 9 4 18 31 36 36 28 7 -3 -12 0 -20 6 -20 43 0 166 42 280 96 152 71 154
71 198 -3z m-1608 -210 c-5 -21 -26 -93 -48 -161 -45 -137 -87 -220 -104 -203
-6 6 -25 11 -43 11 -27 0 -32 4 -38 31 -4 24 2 48 29 103 20 39 41 100 48 136
l12 65 42 1 c29 0 52 9 75 27 18 14 34 26 34 27 1 0 -2 -17 -7 -37z m1820
-143 c0 -8 -6 0 -14 19 -8 18 -15 36 -15 40 1 13 29 -45 29 -59z m-2488 -105
c6 -22 22 -61 35 -86 25 -50 21 -63 -20 -71 -15 -2 -28 13 -57 67 -50 91 -51
118 -3 67 l35 -37 -25 52 c-15 29 -26 65 -26 80 l1 28 24 -30 c14 -16 30 -48
36 -70z m2496 63 c-3 -8 -6 -5 -6 6 -1 11 2 17 5 13 3 -3 4 -12 1 -19z m-17
-68 c-16 -30 -22 -19 -7 13 6 14 13 22 15 17 2 -5 -2 -19 -8 -30z m-353 -52
c-17 -29 -32 -54 -33 -56 -3 -6 -144 22 -144 29 0 18 65 52 107 57 49 5 50 1
15 -41 -8 -9 -13 -20 -10 -23 3 -3 19 12 34 33 55 72 75 73 31 1z m254 -53
c-101 -368 -450 -570 -1051 -610 -178 -12 -429 24 -609 87 -103 36 -264 117
-307 156 l-32 27 19 29 c16 27 19 28 24 10 12 -37 22 -49 42 -49 11 -1 42 -17
69 -37 28 -21 99 -61 159 -90 87 -42 120 -53 171 -56 60 -4 65 -3 94 26 23 23
30 39 30 69 0 74 -68 143 -142 143 -36 0 -45 -5 -72 -44 -13 -19 -15 -19 -62
9 -99 57 -225 171 -224 202 0 4 14 22 31 38 17 17 38 42 47 58 19 32 28 34 37
8 10 -31 111 -120 167 -146 29 -14 78 -30 108 -36 81 -17 251 -7 328 20 l63
21 32 -24 c54 -40 118 -56 231 -56 237 0 461 72 482 155 5 19 11 21 68 17 119
-8 231 46 286 137 33 55 37 32 11 -64z m-1948 -29 c12 -3 34 -6 50 -6 25 0 26
-2 15 -20 -14 -22 -60 -44 -79 -38 -6 2 -20 24 -29 48 -16 41 -16 46 -1 66 16
22 16 22 19 -11 2 -24 9 -35 25 -39z m2068 35 c64 -64 20 -171 -70 -171 -24 0
-41 5 -41 11 0 7 9 9 22 6 34 -9 83 17 98 52 11 28 11 37 -3 66 -9 18 -25 36
-36 40 -12 3 -21 11 -21 16 0 17 22 9 51 -20z m-33 -33 c7 -7 12 -24 12 -38 0
-32 -17 -50 -48 -50 -21 0 -23 4 -18 25 18 71 31 86 54 63z m-560 -26 c1 -5
16 -6 32 -4 17 2 30 1 30 -2 0 -16 -104 -70 -190 -98 -90 -30 -103 -32 -255
-32 -139 -1 -165 2 -195 18 l-34 19 54 24 c80 36 196 72 265 83 69 10 288 5
293 -8z m-1418 -112 c26 -64 233 -230 286 -230 16 0 25 9 33 30 11 34 43 40
90 16 47 -25 67 -99 35 -130 -81 -81 -487 168 -538 329 -5 18 -2 20 38 17 38
-3 46 -8 56 -32z m-209 12 c49 -3 57 -7 66 -30 7 -15 20 -39 29 -54 14 -21 16
-33 9 -54 -29 -79 -78 -46 -176 120 -21 37 -21 39 -3 31 10 -5 44 -11 75 -13z
m-56 -102 c3 -6 -1 -7 -10 -4 -23 9 -62 -4 -85 -28 -26 -28 -26 -78 1 -112 43
-55 149 -19 149 51 0 19 3 24 11 16 16 -16 0 -61 -33 -88 -69 -58 -168 -8
-168 85 0 45 47 90 94 90 19 0 38 -4 41 -10z m5 -50 c24 -24 25 -47 3 -72 -33
-36 -93 -13 -93 37 0 24 33 55 57 55 7 0 22 -9 33 -20z m1707 -314 c92 -104
197 -305 244 -469 29 -102 37 -266 15 -339 -28 -98 -94 -125 -160 -68 l-35 31
6 127 c7 147 -6 263 -43 390 -28 95 -87 229 -136 305 -17 26 -29 49 -27 51 7
5 63 24 76 25 6 1 33 -23 60 -53z m-912 -29 c62 -11 72 -16 92 -46 49 -72 54
-170 14 -250 -30 -57 -46 -64 -38 -15 l6 39 -19 -37 c-31 -58 -69 -201 -100
-380 -37 -204 -70 -316 -109 -357 -34 -36 -45 -38 -87 -12 -40 24 -79 102
-101 201 -32 146 -16 442 33 595 45 138 164 293 216 280 13 -3 54 -11 93 -18z
m578 -17 c-30 -51 -57 -63 -126 -55 -68 7 -184 48 -152 53 44 6 242 29 268 31
l28 1 -18 -30z m-384 -37 c40 -156 61 -383 68 -722 l6 -294 -49 6 c-27 3 -72
11 -101 17 l-52 12 -3 301 -3 302 30 26 c17 15 44 51 60 80 40 74 47 193 17
262 -20 46 -20 47 -2 47 14 0 22 -11 29 -37z m629 -78 c44 -88 64 -142 94
-255 38 -144 34 -488 -6 -528 -11 -11 -14 17 -20 155 -4 92 -14 220 -22 283
-16 129 -65 336 -95 408 -32 74 3 30 49 -63z m-180 -75 c45 -199 82 -530 82
-733 0 -75 -1 -78 -27 -88 -32 -13 -165 -38 -174 -33 -3 2 -9 108 -12 236 -6
234 -20 372 -57 569 -28 147 -30 139 36 139 47 0 59 4 82 28 15 15 30 25 34
22 3 -3 20 -66 36 -140z m-626 -824 c35 -14 71 -27 81 -30 15 -5 5 -18 -50
-68 -37 -35 -121 -114 -188 -176 l-120 -112 -3 40 c-3 34 8 108 33 225 3 14
13 20 34 21 40 1 76 26 114 80 17 24 32 44 34 44 1 0 31 -11 65 -24z m638 -75
c9 -18 5 -21 -43 -31 -82 -17 -260 -38 -274 -33 -17 6 -17 28 0 41 6 5 55 13
107 17 79 6 119 11 192 24 4 0 12 -8 18 -18z m295 -72 c8 -60 -5 -80 -64 -97
-56 -17 -105 -15 -123 6 -13 14 -48 86 -48 98 0 1 25 6 56 10 31 3 77 12 102
19 69 19 70 19 77 -36z m-260 1 c22 -43 19 -54 -25 -93 -76 -70 -189 -113
-250 -97 -31 8 -37 15 -48 55 -7 25 -12 63 -12 84 l0 39 68 6 c53 5 201 26
244 35 4 0 14 -12 23 -29z m-399 -115 c11 -59 -1 -83 -46 -95 -22 -6 -70 -10
-107 -8 -64 3 -67 4 -84 38 -10 19 -20 46 -21 59 -3 21 2 25 30 28 22 3 40 -1
52 -12 21 -19 98 -11 107 11 3 8 18 14 34 14 24 0 29 -5 35 -35z m519 -23 c72
4 74 -17 3 -31 -49 -10 -251 -40 -272 -41 -6 0 13 12 41 26 29 14 71 42 95 63
l43 38 18 -29 c17 -28 21 -30 72 -26z m-795 8 c0 -43 24 -96 51 -111 27 -14
165 -7 199 11 20 10 21 9 18 -12 -4 -31 -55 -55 -147 -68 -104 -15 -165 -5
-196 32 -22 25 -45 84 -45 114 0 19 44 52 75 57 17 2 33 5 38 6 4 0 7 -13 7
-29z m-101 -170 l20 -27 -23 -13 c-14 -7 -36 -9 -54 -5 -35 7 -82 41 -82 58 0
6 21 33 47 59 l48 49 12 -47 c6 -26 21 -60 32 -74z m914 40 c5 -19 0 -20 -61
-20 -37 0 -96 -7 -131 -15 -35 -9 -66 -14 -68 -12 -5 6 136 45 190 53 26 3 47
11 47 16 0 16 17 -1 23 -22z m-546 -106 c9 -24 -7 -31 -87 -37 -70 -5 -73 -4
-40 8 19 8 48 14 63 14 15 1 30 8 33 16 8 20 23 19 31 -1z m587 -49 c-4 -8 -2
-15 3 -15 5 0 18 -7 29 -16 18 -15 18 -15 -8 -9 -16 3 -74 -4 -129 -15 -56
-12 -104 -19 -107 -16 -2 3 2 16 11 29 12 19 33 28 89 40 99 20 119 21 112 2z
m-547 -109 c-3 -8 2 -16 14 -19 10 -3 19 -11 19 -17 0 -8 -9 -10 -23 -6 -12 3
-48 -1 -80 -8 -53 -12 -57 -12 -57 4 0 24 24 42 68 51 57 11 65 10 59 -5z"/>
<path d="M2320 3225 c0 -8 4 -15 9 -15 5 0 14 7 21 15 10 13 9 15 -9 15 -12 0
-21 -6 -21 -15z"/>
<path d="M2815 3069 c-10 -15 1 -23 20 -15 9 3 13 10 10 16 -8 13 -22 13 -30
-1z"/>
<path d="M2794 2996 c-38 -32 -28 -41 11 -11 16 13 27 27 23 30 -3 3 -19 -5
-34 -19z"/>
<path d="M2220 1010 c-34 -12 -86 -19 -135 -20 -93 0 -130 -14 -71 -26 63 -11
172 3 231 30 86 39 71 48 -25 16z"/>
</g>
</svg>
